<svg version="1.2" xmlns="http://www.w3.org/2000/svg" viewBox="0 0 1544 1548" width="1544" height="1548">
	<title>j-group</title>
	<style>
		.s0 { fill: #ffffff } 
		.s1 { fill: #f8991d } 
	</style>
	<g id="Layer">
		<g id="Path_2344_3_">
			<path id="Shape 1" class="s0" d="m780.4 1404.5c-360.7 0-652.3-283.2-652.3-633.5 0-350.3 291.6-633.5 652.3-633.5 360.7 0 652.2 283.2 652.2 633.5 0 350.3-291.5 633.5-652.2 633.5z"/>
		</g>
		<g id="Layer">
			<g id="Layer">
				<path id="Layer" fill-rule="evenodd" class="s1" d="m1432.6 374.2v0.2h1.6c73.1 120.3 111 259.6 109.3 400.7 0 141.7-38.1 281.1-109.8 402.9l-22 32.5-43.7 58.7-49.3 54.5c-14.8 16.8-36.3 31.2-54.4 49.2-28.5 22.5-59.2 43.7-90.8 62l-33.1 22c-113.5 59.9-239.5 91.3-368 90.9-128.7 0.7-255.5-32-367.6-95.1-21.8-9.8-42.7-22-61.8-36.4l-58.6-43.8c-38.1-31.6-73.6-66.7-105.2-105.3-16.6-18.7-31.4-39.9-43.8-61.9l-21.7-29-36.4-65.9c-15.9-34.2-29.4-69.1-40.5-105.3-23.1-74.3-35.3-151.7-36.4-229.8 0.5-52.7 6.3-104.8 18.1-156.5 21.3-111.2 67.5-216.3 135.7-306.6 21.3-30.3 45.7-58.2 72.9-83.7l25.7-25.7 58.6-49.3 61.8-40.5 32.5-18.1c112.3-63.3 239.3-96.2 368-94.7 128.9-0.4 255.4 32.1 368 94.7l32.5 18.1 58.5 40.5 58.2 49.3 25.7 25.7c27.2 25.1 51.6 53.2 72.9 83.7 15.9 19.7 30.5 40.2 43.8 62zm-481.5 152.8l-174.8-357.8-178.4 357.8-393.7 58.2 283.7 277.3-65.5 394.2 349.1-185.7 353.6 185.7-65.8-394.2 284.4-277.3z"/>
			</g>
		</g>
	</g>
</svg>